<svg width="49" height="48" viewBox="0 0 49 48" fill="none" xmlns="http://www.w3.org/2000/svg">
<mask id="path-1-inside-1_119_4" fill="white">
<path d="M49 24C49 37.2548 38.031 48 24.5 48C10.969 48 0 37.2548 0 24C0 10.7452 10.969 0 24.5 0C12.5 6.5 17.5 42 49 24Z"/>
</mask>
<path d="M49 24C49 37.2548 38.031 48 24.5 48C10.969 48 0 37.2548 0 24C0 10.7452 10.969 0 24.5 0C12.5 6.5 17.5 42 49 24Z" fill="white"/>
<path d="M49 24H54V15.3841L46.5193 19.6588L49 24ZM24.5 0L26.8814 4.39646L24.5 -5V0ZM44 24C44 34.3967 35.3672 43 24.5 43V53C40.6947 53 54 40.1129 54 24H44ZM24.5 43C13.6328 43 5 34.3967 5 24H-5C-5 40.1129 8.30529 53 24.5 53V43ZM5 24C5 13.6033 13.6328 5 24.5 5V-5C8.30529 -5 -5 7.88705 -5 24H5ZM22.1186 -4.39646C17.3111 -1.79242 14.8019 3.30239 13.918 8.12133C13.016 13.0389 13.5898 18.6322 15.9579 23.4085C18.3857 28.3053 22.781 32.4339 29.2586 33.6693C35.5637 34.8718 43.0196 33.1761 51.4807 28.3412L46.5193 19.6588C39.2304 23.8239 34.2488 24.4407 31.132 23.8463C28.1877 23.2848 26.1768 21.5072 24.9171 18.9665C23.5977 16.3053 23.2028 12.9299 23.7539 9.92555C24.3231 6.82261 25.6889 5.04242 26.8814 4.39646L22.1186 -4.39646Z" fill="#14395C" mask="url(#path-1-inside-1_119_4)"/>
</svg>
