<svg width="228" height="92" viewBox="0 0 228 92" fill="none" xmlns="http://www.w3.org/2000/svg">
<path d="M40.6437 80.6373L38.1437 85.1373L42.9494 84.6567C46.4043 84.3112 49.818 83.635 53.1437 82.6373V82.6373V82.6373C66.4517 78.6139 77.0075 68.1002 80.9304 54.7622L81.2074 53.8205C83.4426 46.2207 83.2561 38.1134 80.6737 30.6244V30.6244C76.8658 19.5814 68.2076 10.8921 57.1783 7.04466L56.8692 6.93684C54.4031 6.07658 51.8099 5.63726 49.1981 5.63726L13.6437 5.63726C9.22542 5.63726 5.6437 9.21898 5.6437 13.6373L5.6437 74.1373C5.6437 80.2124 10.5686 85.1373 16.6437 85.1373V85.1373C23.5473 85.1373 29.1437 79.5409 29.1437 72.6373L29.1437 28.6373C29.1437 25.3235 31.83 22.6372 35.1437 22.6372L47.0687 22.6372C50.835 22.6372 54.3224 24.6224 56.2452 27.8609L56.3942 28.1119C60.2525 34.6101 60.2919 42.6875 56.4971 49.2231V49.2231C54.7184 52.2864 51.5057 54.2367 47.9672 54.4013L32.1436 55.1373" stroke="url(#paint0_linear_1_14)" stroke-width="10"/>
<path d="M88.3214 82.9957C86.6557 82.9957 85.3889 82.3238 84.5211 80.9801C83.6673 79.6223 83.2403 77.9146 83.2403 75.857C83.2403 74.1913 83.4083 72.7636 83.7443 71.5738C84.0942 70.384 84.5491 69.5092 85.109 68.9493C85.6689 68.3894 86.2148 67.9975 86.7467 67.7735C87.2786 67.5356 87.8175 67.4166 88.3634 67.4166C90.337 67.4166 91.8138 68.2494 92.7936 69.9151V72.9596C92.7936 76.7808 92.7796 79.3774 92.7516 80.7491C91.1979 82.2468 89.7211 82.9957 88.3214 82.9957ZM102.032 83.4576C102.494 84.3814 102.466 85.2703 101.948 86.1241C98.3645 86.0121 95.3551 86.0121 92.9195 86.1241C92.4016 85.9002 92.0727 85.6132 91.9327 85.2633C90.575 86.1591 88.6923 86.607 86.2848 86.607C83.9052 86.607 81.9736 85.7182 80.4899 83.9405C79.0201 82.1628 78.2853 79.7413 78.2853 76.6759C78.2853 75.3181 78.4882 73.9954 78.8942 72.7076C79.3001 71.4198 79.909 70.2021 80.7208 69.0543C81.5327 67.9065 82.6595 66.9757 84.1012 66.2618C85.5569 65.5479 87.2156 65.191 89.0773 65.191C90.351 65.191 91.3028 65.219 91.9327 65.275C91.9047 63.0634 91.8907 60.4109 91.8907 57.3175C90.9669 57.0235 89.6861 56.8346 88.0485 56.7506C87.7405 55.9247 87.7405 55.0359 88.0485 54.0841C90.0081 53.9161 92.4926 53.2862 95.5021 52.1944C97.0138 52.3064 98.1406 52.7683 98.8824 53.5802C98.8824 69.5512 98.9454 79.0974 99.0714 82.2188C99.0994 82.8207 100.086 83.2336 102.032 83.4576ZM91.9327 70.1251C91.2329 69.1313 90.316 68.5434 89.1822 68.3614C88.2024 68.5714 87.3626 69.2503 86.6627 70.398C85.9628 71.5318 85.6129 73.3515 85.6129 75.857C85.6129 77.4807 85.8929 78.8595 86.4528 79.9933C87.0266 81.127 87.8875 81.8129 89.0353 82.0509C89.9591 81.8409 90.9109 81.295 91.8907 80.4132C91.9187 79.0274 91.9327 76.5429 91.9327 72.9596V70.1251ZM101.255 84.2345C100.541 84.1785 99.9952 84.1225 99.6173 84.0665C99.2534 84.0105 98.7355 83.9125 98.0636 83.7725C97.4057 83.6186 96.9088 83.4226 96.5729 83.1847C96.2509 82.9327 96.09 82.6248 96.09 82.2608C95.978 79.1394 95.922 69.6492 95.922 53.7901C95.782 53.5382 95.5371 53.3492 95.1871 53.2232C93.3255 54.1191 91.1629 54.693 88.6993 54.9449C88.6153 55.2948 88.6153 55.6238 88.6993 55.9317C90.589 56.0297 91.9397 56.3167 92.7516 56.7926C92.7516 60.7538 92.7656 64.0642 92.7936 66.7237C91.3518 66.2758 90.1131 66.0518 89.0773 66.0518C87.4256 66.0518 85.9628 66.3808 84.6891 67.0387C83.4293 67.6965 82.4425 68.5644 81.7286 69.6422C81.0148 70.706 80.4759 71.8328 80.1119 73.0225C79.762 74.2123 79.587 75.4301 79.587 76.6759C79.587 79.4753 80.2099 81.6869 81.4557 83.3106C82.7014 84.9343 84.1992 85.7462 85.9488 85.7462C88.1604 85.7462 90.407 84.6124 92.6886 82.3448C92.6886 83.5206 92.6606 84.2765 92.6046 84.6124C92.7586 84.9343 92.9335 85.1513 93.1295 85.2633C93.5914 85.2353 94.0463 85.2073 94.4943 85.1793C94.9562 85.1513 95.3201 85.1303 95.5861 85.1163C95.866 85.1023 96.111 85.0953 96.3209 85.0953C97.0908 85.0953 98.7355 85.1373 101.255 85.2213C101.451 84.9413 101.451 84.6124 101.255 84.2345ZM107.344 66.5138L105.895 71.7628C106.091 71.9587 106.336 72.0567 106.63 72.0567L108.688 68.1934C109.891 67.9415 111.585 67.8155 113.769 67.8155H116.561L105.538 84.4024C105.664 84.8084 105.853 85.0953 106.105 85.2633C108.541 85.1793 111.046 85.1373 113.622 85.1373C114.49 85.1373 115.245 85.0883 115.889 84.9903C116.533 84.8923 117.317 84.6544 118.241 84.2765C119.179 83.8985 119.998 83.2406 120.697 82.3028C121.397 81.351 121.936 80.1472 122.314 78.6915C122.09 78.5795 121.845 78.5235 121.579 78.5235C121.033 79.4893 120.599 80.2032 120.277 80.6651C119.97 81.127 119.543 81.6309 118.997 82.1768C118.465 82.7227 117.863 83.1007 117.191 83.3106C116.533 83.5206 115.749 83.6256 114.839 83.6256H109.59L120.424 67.2906C120.424 67.0387 120.298 66.7797 120.047 66.5138C118.171 66.6257 116.092 66.6817 113.811 66.6817C111.543 66.6817 109.387 66.6257 107.344 66.5138ZM107.176 72.9176C106.896 72.9176 106.497 72.8126 105.979 72.6026C105.461 72.3927 105.118 72.1967 104.95 72.0147L106.714 65.6109C111.753 65.8769 117.009 65.8909 122.482 65.6529C123.084 66.2548 123.385 66.8987 123.385 67.5846L113.328 82.7647H114.839C115.637 82.7647 116.337 82.6598 116.939 82.4498C117.541 82.2398 118.094 81.8689 118.598 81.337C119.102 80.8051 119.508 80.3012 119.816 79.8253C120.137 79.3494 120.571 78.6285 121.117 77.6627C121.831 77.6627 122.559 77.8447 123.301 78.2086L121.705 86.1661C116.442 86.0541 113.552 85.9981 113.034 85.9981C109.213 85.9981 106.819 86.0401 105.853 86.1241C105.251 85.7882 104.831 85.1583 104.593 84.2345L114.923 68.6764C113.426 68.7603 111.921 69.1523 110.409 69.8521C108.912 70.552 107.834 71.5738 107.176 72.9176ZM133.421 55.6378C136.584 55.6378 138.166 56.7856 138.166 59.0811C138.166 61.3767 136.584 62.5245 133.421 62.5245C132.945 62.5245 132.497 62.4335 132.077 62.2516C131.671 62.0696 131.314 61.8246 131.006 61.5167C130.699 61.1947 130.454 60.8238 130.272 60.4039C130.09 59.984 129.999 59.5431 129.999 59.0811C129.999 58.6192 130.09 58.1783 130.272 57.7584C130.454 57.3385 130.699 56.9745 131.006 56.6666C131.314 56.3447 131.671 56.0927 132.077 55.9107C132.497 55.7288 132.945 55.6378 133.421 55.6378ZM131.489 57.2755C131.069 57.7654 130.859 58.3673 130.859 59.0811C130.859 59.4451 130.915 59.788 131.027 60.11C131.153 60.4179 131.321 60.6908 131.531 60.9288C131.741 61.1528 131.979 61.3347 132.245 61.4747C132.525 61.6007 132.819 61.6637 133.127 61.6637C133.421 61.6637 133.708 61.6007 133.988 61.4747C134.268 61.3347 134.513 61.1528 134.723 60.9288C134.933 60.6908 135.101 60.4179 135.227 60.11C135.353 59.788 135.416 59.4451 135.416 59.0811C135.416 58.7172 135.353 58.3813 135.227 58.0733C135.101 57.7514 134.933 57.4784 134.723 57.2545C134.513 57.0165 134.268 56.8346 133.988 56.7086C133.708 56.5686 133.421 56.4986 133.127 56.4986C132.833 56.4986 132.546 56.5616 132.266 56.6876C131.986 56.8136 131.727 57.0095 131.489 57.2755ZM139.972 84.1715C136.64 83.8635 134.961 83.1917 134.933 82.1558C134.793 77.9566 134.737 72.7986 134.765 66.6817C134.653 66.4578 134.408 66.2758 134.03 66.1358C132.084 67.0457 130.062 67.6196 127.962 67.8575C127.878 68.1934 127.878 68.5224 127.962 68.8443C129.544 68.9283 130.748 69.2153 131.573 69.7052C131.699 74.9262 131.685 79.0764 131.531 82.1558C131.503 83.1917 130.314 83.8635 127.962 84.1715C127.822 84.5214 127.822 84.8643 127.962 85.2003C131.979 85.1163 135.983 85.1163 139.972 85.2003C140.112 84.8643 140.112 84.5214 139.972 84.1715ZM140.749 83.3946C140.973 84.2625 140.973 85.1093 140.749 85.9351C136.241 85.7952 131.727 85.7952 127.206 85.9351C126.968 85.1093 126.968 84.2625 127.206 83.3946C129.488 83.1707 130.643 82.7437 130.671 82.1139C130.852 78.1946 130.866 74.2263 130.713 70.2091C129.775 69.9291 128.606 69.7472 127.206 69.6632C126.884 68.8233 126.884 67.9345 127.206 66.9967C129.32 66.8847 131.699 66.2548 134.345 65.107C135.857 65.219 136.983 65.6739 137.725 66.4718C137.669 73.3585 137.725 78.5725 137.893 82.1139C137.935 82.7437 138.887 83.1707 140.749 83.3946ZM157.755 84.1715C157.588 84.4934 157.588 84.8364 157.755 85.2003C161.395 85.1163 165.041 85.1163 168.694 85.2003C168.89 84.8643 168.89 84.5214 168.694 84.1715C165.279 84.0035 163.557 83.3316 163.529 82.1558L163.319 71.5948C163.249 69.6772 162.935 68.2774 162.375 67.3956C161.829 66.4998 160.863 66.0518 159.477 66.0518C157.154 66.0518 154.389 67.6545 151.184 70.86V66.6817C151.072 66.4578 150.827 66.2758 150.449 66.1358C148.503 67.0457 146.481 67.6196 144.381 67.8575C144.297 68.1934 144.297 68.5224 144.381 68.8443C145.991 68.9283 147.18 69.2153 147.95 69.7052C148.104 73.8904 148.104 78.0406 147.95 82.1558C147.922 83.1917 146.719 83.8635 144.339 84.1715C144.171 84.4934 144.171 84.8364 144.339 85.2003C147.978 85.0603 151.639 85.0603 155.32 85.2003C155.488 84.8364 155.488 84.4934 155.32 84.1715C152.702 83.8915 151.38 83.2197 151.352 82.1558C151.24 79.2444 151.184 75.927 151.184 72.2037C153.997 69.7262 156.202 68.4874 157.797 68.4874C159.323 68.4874 160.086 69.7542 160.086 72.2877L160.044 82.1558C160.044 82.8417 159.834 83.3246 159.414 83.6046C158.994 83.8705 158.441 84.0595 157.755 84.1715ZM157.084 85.9351C156.734 85.1093 156.734 84.2625 157.084 83.3946C157.532 83.3946 157.993 83.2756 158.469 83.0377C158.945 82.7857 159.183 82.4918 159.183 82.1558L159.225 72.2877C159.225 70.762 158.924 69.8311 158.322 69.4952C157.287 69.7472 155.894 70.503 154.144 71.7628C154.144 75.6121 154.2 79.0624 154.312 82.1139C154.382 82.8557 154.942 83.2826 155.992 83.3946C156.342 84.2625 156.342 85.1093 155.992 85.9351C151.891 85.7952 147.768 85.7952 143.625 85.9351C143.275 85.1093 143.275 84.2625 143.625 83.3946C145.907 83.0867 147.061 82.6598 147.089 82.1139C147.243 78.1666 147.243 74.1983 147.089 70.2091C146.152 69.9291 144.997 69.7472 143.625 69.6632C143.303 68.8233 143.303 67.9345 143.625 66.9967C145.739 66.8847 148.118 66.2548 150.764 65.107C152.276 65.219 153.402 65.6739 154.144 66.4718V67.1646C156.132 65.8489 158.413 65.191 160.989 65.191C162.879 65.191 164.222 65.7089 165.02 66.7447C165.832 67.7665 166.252 69.3832 166.28 71.5948C166.336 77.1518 166.406 80.6721 166.49 82.1558C166.518 82.7297 167.505 83.1427 169.45 83.3946C169.772 84.3184 169.744 85.1653 169.366 85.9351C165.265 85.8512 161.171 85.8512 157.084 85.9351ZM182.195 67.4166C183.315 67.4166 184.127 67.7805 184.63 68.5084C185.134 69.2223 185.386 70.1181 185.386 71.1959C185.386 71.6018 185.316 72.0637 185.176 72.5816H176.988C177.422 70.832 178.122 69.5372 179.088 68.6974C180.067 67.8435 181.103 67.4166 182.195 67.4166ZM176.778 74.0094H188.221C188.445 73.3095 188.557 72.5886 188.557 71.8468C188.557 70.2091 188.088 68.8373 187.15 67.7315C186.226 66.6117 184.749 66.0518 182.72 66.0518C180.074 66.0518 177.849 67.0107 176.043 68.9283C174.237 70.846 173.335 73.2815 173.335 76.235C173.335 79.3844 174.195 81.7569 175.917 83.3526C177.639 84.9483 179.661 85.7462 181.985 85.7462C183.707 85.7462 185.302 85.2843 186.772 84.3604C188.256 83.4226 189.341 82.0159 190.026 80.1402C189.831 79.9163 189.558 79.7623 189.208 79.6783C189.152 79.7623 188.984 79.9933 188.704 80.3712C188.438 80.7351 188.242 81.0011 188.116 81.169C187.99 81.323 187.759 81.554 187.423 81.8619C187.101 82.1558 186.786 82.3728 186.478 82.5128C186.184 82.6528 185.806 82.7927 185.344 82.9327C184.882 83.0587 184.379 83.1217 183.833 83.1217C181.677 83.1217 179.962 82.4848 178.689 81.211C177.415 79.9233 176.75 78.1946 176.694 76.025C176.694 75.5351 176.722 74.8632 176.778 74.0094ZM188.872 78.6915C189.754 78.8875 190.467 79.3284 191.013 80.0142C190.215 82.1978 188.984 83.8425 187.318 84.9483C185.652 86.0541 183.875 86.607 181.985 86.607C179.409 86.607 177.177 85.7392 175.287 84.0035C173.412 82.2678 172.474 79.6783 172.474 76.235C172.474 73.1135 173.433 70.496 175.35 68.3824C177.282 66.2548 180.011 65.191 183.539 65.191C188.872 65.191 191.538 67.4096 191.538 71.8468C191.538 72.7146 191.335 73.7224 190.929 74.8702H179.654V76.235C179.724 77.9286 180.186 79.3074 181.04 80.3712C181.894 81.421 183.07 82.0369 184.567 82.2188C185.449 82.1349 186.177 81.8339 186.751 81.316C187.325 80.7981 188.032 79.9233 188.872 78.6915ZM184.526 71.1959C184.526 69.6562 184.008 68.7253 182.972 68.4034C181.74 68.7813 180.823 69.8871 180.221 71.7208H184.484C184.484 71.6648 184.491 71.5808 184.505 71.4688C184.519 71.3569 184.526 71.2659 184.526 71.1959ZM198.887 85.3892C198.215 85.6132 197.557 85.8862 196.913 86.2081C196.255 85.8022 195.821 85.3892 195.611 84.9693C195.639 84.8853 195.681 84.5984 195.737 84.1085C195.793 83.6186 195.849 83.0447 195.905 82.3868C195.975 81.7289 196.031 81.0501 196.073 80.3502C196.115 79.6503 196.136 79.0554 196.136 78.5655C196.794 78.2576 197.809 78.1036 199.181 78.1036C199.335 78.1036 199.489 78.1036 199.643 78.1036C199.797 78.1036 199.958 78.1106 200.126 78.1246C201.133 81.4 202.512 83.1777 204.262 83.4576C204.976 83.3456 205.522 83.0867 205.9 82.6808C206.291 82.2608 206.487 81.7919 206.487 81.274C206.487 80.8961 206.382 80.5461 206.172 80.2242C205.963 79.8883 205.683 79.5803 205.333 79.3004C204.983 79.0204 204.57 78.7615 204.094 78.5235C203.632 78.2856 203.142 78.0546 202.624 77.8307C202.106 77.5927 201.581 77.3687 201.049 77.1588C200.518 76.9348 200.007 76.7039 199.517 76.4659C198.999 76.228 198.509 75.941 198.047 75.6051C197.585 75.2551 197.179 74.8632 196.829 74.4293C196.479 73.9814 196.199 73.4915 195.989 72.9596C195.793 72.4277 195.695 71.8538 195.695 71.2379C195.695 70.58 195.807 69.8941 196.031 69.1803C196.255 68.4664 196.64 67.8155 197.186 67.2276C197.732 66.6397 198.467 66.1568 199.391 65.7789C200.315 65.387 201.476 65.191 202.876 65.191C204.43 65.191 205.578 65.275 206.319 65.443L207.096 65.191H208.524C208.706 66.3808 208.923 67.4936 209.175 68.5294C209.441 69.5652 209.735 70.531 210.057 71.4268C209.455 72.0287 208.727 72.3297 207.873 72.3297C207.397 71.7698 206.956 71.2659 206.55 70.818C206.144 70.356 205.753 69.9571 205.375 69.6212C205.011 69.2852 204.647 69.0123 204.283 68.8023C203.933 68.5924 203.569 68.4454 203.191 68.3614C202.267 68.5154 201.805 68.9353 201.805 69.6212C201.805 70.1671 202.043 70.643 202.519 71.0489C202.995 71.4548 203.59 71.8258 204.304 72.1617C205.018 72.4976 205.795 72.8196 206.634 73.1275C207.488 73.4215 208.293 73.7364 209.049 74.0724C209.595 74.3103 210.106 74.6183 210.582 74.9962C211.072 75.3741 211.498 75.815 211.862 76.3189C212.226 76.8088 212.513 77.3617 212.723 77.9776C212.933 78.5795 213.038 79.2304 213.038 79.9303C213.038 80.9661 212.772 81.8969 212.24 82.7227C211.722 83.5486 211.03 84.2485 210.162 84.8224C209.308 85.3962 208.328 85.8372 207.222 86.1451C206.116 86.453 204.99 86.607 203.842 86.607C201.868 86.607 200.217 86.2011 198.887 85.3892ZM203.695 85.7462C205.445 85.7462 206.942 85.2283 208.188 84.1925C209.434 83.1567 210.057 81.9949 210.057 80.7071C210.057 79.4474 209.672 78.3626 208.902 77.4527C208.132 76.5289 207.201 75.815 206.109 75.3111C205.018 74.8072 203.919 74.3453 202.813 73.9254C201.707 73.4915 200.769 72.9876 200 72.4137C199.23 71.8398 198.845 71.1679 198.845 70.398C198.845 69.4182 199.209 68.6764 199.937 68.1725C200.665 67.6685 201.518 67.4166 202.498 67.4166C203.534 67.4166 204.458 67.7385 205.27 68.3824C206.081 69.0263 207.075 70.0551 208.251 71.4688C208.629 71.4688 208.902 71.3779 209.07 71.1959C208.552 69.7122 207.782 68.4874 206.76 67.5216C205.753 66.5418 204.458 66.0518 202.876 66.0518C200.623 66.0518 199.006 66.5907 198.026 67.6685C197.046 68.7323 196.556 69.9221 196.556 71.2379C196.556 72.3577 196.927 73.3165 197.669 74.1143C198.425 74.8982 199.328 75.5071 200.378 75.941C201.441 76.3609 202.498 76.7808 203.548 77.2008C204.598 77.6207 205.494 78.1666 206.235 78.8385C206.977 79.5103 207.348 80.3222 207.348 81.274C207.348 82.0719 207.005 82.7857 206.319 83.4156C205.634 84.0455 204.675 84.3604 203.443 84.3604C201.959 84.3604 200.811 83.8915 200 82.9537C199.202 82.0019 198.53 80.6791 197.984 78.9854C197.494 78.9854 197.165 79.0274 196.997 79.1114C196.997 80.1192 196.948 81.274 196.85 82.5758C196.752 83.8775 196.654 84.6474 196.556 84.8853C196.654 85.0253 196.787 85.1513 196.955 85.2633C197.529 84.8573 197.97 84.4304 198.278 83.9825C199.51 84.6684 200.469 85.1303 201.154 85.3683C201.854 85.6202 202.701 85.7462 203.695 85.7462Z" fill="url(#paint1_linear_1_14)"/>
<defs>
<linearGradient id="paint0_linear_1_14" x1="5.32291" y1="45.5215" x2="84.6658" y2="44.879" gradientUnits="userSpaceOnUse">
<stop stop-color="#071B63"/>
<stop offset="1" stop-color="#0945DF" stop-opacity="0.84"/>
</linearGradient>
<linearGradient id="paint1_linear_1_14" x1="133.5" y1="67" x2="134" y2="85" gradientUnits="userSpaceOnUse">
<stop stop-color="#0E40C0"/>
<stop offset="1" stop-color="#0E1D52"/>
</linearGradient>
</defs>
</svg>
