<svg width="428" height="149" viewBox="0 0 428 149" fill="none" xmlns="http://www.w3.org/2000/svg">
<g filter="url(#filter0_d_60_3)">
<path d="M57 85.6318L75.2975 85.6318C83.6727 85.6318 91.1609 80.4135 94.0606 72.5563L94.7987 70.5562C99.618 57.4974 89.9554 43.6318 76.0356 43.6318L63.2351 43.6318C58.2645 43.6318 54.2351 47.6612 54.2351 52.6318L54.2349 108.632C54.2349 117.745 46.8476 125.132 37.735 125.132V125.132C28.6223 125.132 21.2351 117.745 21.2351 108.632L21.2352 36.856C21.2353 27.0672 29.1707 19.1318 38.9595 19.1318L73.5612 19.1318C98.8723 19.1318 120.873 36.5089 126.735 61.1317V61.1317V61.1317C133.716 94.2238 108.648 125.419 74.8295 125.726L65 125.816L68.5 121" stroke="url(#paint0_linear_60_3)" stroke-width="12" shape-rendering="crispEdges"/>
</g>
<path d="M166.745 124.8C164.882 126.533 163.105 127.985 161.415 129.155C159.768 130.282 158.295 130.845 156.995 130.845C155.955 130.845 155.067 130.39 154.33 129.48C153.637 128.57 153.138 127.01 152.835 124.8C151.232 126.533 149.173 127.985 146.66 129.155C144.147 130.282 141.287 130.845 138.08 130.845C133.963 130.845 130.887 129.567 128.85 127.01C126.857 124.41 125.86 120.813 125.86 116.22C125.86 104.303 134.353 96.785 151.34 93.665L150.69 79.3H162.065L161.155 118.755V120.51C161.155 122.07 161.285 123.197 161.545 123.89C161.848 124.54 162.52 124.865 163.56 124.865C163.907 124.865 164.318 124.822 164.795 124.735C165.315 124.648 165.878 124.54 166.485 124.41L166.745 124.8ZM151.47 96.72C145.837 99.1033 141.785 101.898 139.315 105.105C136.845 108.312 135.61 111.843 135.61 115.7C135.61 118.647 136.108 120.792 137.105 122.135C138.102 123.478 139.553 124.15 141.46 124.15C143.367 124.15 145.187 123.912 146.92 123.435C148.697 122.915 150.582 122.157 152.575 121.16L151.47 96.72ZM170.25 130.845L168.95 123.695L188.905 96.98L170.315 103.09V93.795H202.1L177.92 122.655L202.945 125.645V126.36L170.25 130.845ZM206.364 78.39L222.159 81.12L211.564 91.78L206.364 78.39ZM209.159 130L207.469 93.795H218.909L217.219 130H209.159ZM253.253 130L252.213 107.705C252.083 104.845 251.693 102.96 251.043 102.05C250.437 101.097 249.462 100.62 248.118 100.62C247.078 100.62 245.627 100.902 243.763 101.465C241.9 101.985 240.08 102.808 238.303 103.935L237.068 130H229.073L227.383 93.795H238.758L238.433 100.685C239.777 99.1683 241.315 97.825 243.048 96.655C244.825 95.485 246.667 94.575 248.573 93.925C250.48 93.275 252.3 92.95 254.033 92.95C257.283 92.95 259.493 93.8383 260.663 95.615C261.833 97.3483 262.418 99.8833 262.418 103.22C262.418 103.523 262.397 103.827 262.353 104.13C262.353 104.39 262.353 104.693 262.353 105.04L261.313 130H253.253ZM304.269 130.845C297.595 130.845 292.027 130.542 287.564 129.935C283.1 129.328 279.569 128.332 276.969 126.945C274.369 125.558 272.505 123.738 271.379 121.485C270.252 119.232 269.689 116.48 269.689 113.23C269.689 109.027 270.469 105.408 272.029 102.375C273.589 99.3417 275.625 97.0233 278.139 95.42C280.695 93.7733 283.382 92.95 286.199 92.95C288.452 92.95 290.727 93.2967 293.024 93.99C295.32 94.6833 297.465 95.81 299.459 97.37C301.452 98.93 303.077 100.988 304.334 103.545C305.59 106.058 306.305 109.157 306.479 112.84L278.854 115.96C279.244 118.343 280.327 120.38 282.104 122.07C283.924 123.717 286.654 125.168 290.294 126.425C293.934 127.682 298.679 128.895 304.529 130.065L304.269 130.845ZM295.624 107.51C295.407 105.82 294.909 104.217 294.129 102.7C293.349 101.183 292.352 99.97 291.139 99.06C289.925 98.1067 288.582 97.63 287.109 97.63C285.375 97.63 283.88 98.0417 282.624 98.865C281.367 99.6883 280.392 101.27 279.699 103.61C279.005 105.907 278.659 109.287 278.659 113.75C278.659 113.967 278.659 114.183 278.659 114.4C278.659 114.573 278.68 114.768 278.724 114.985L295.624 107.51ZM337.617 106.015C336.49 104.888 335.06 103.762 333.327 102.635C331.593 101.508 329.817 100.533 327.997 99.71C326.22 98.8433 324.66 98.3017 323.317 98.085C323.013 97.9983 322.71 97.955 322.407 97.955C322.103 97.955 321.8 97.955 321.497 97.955C320.153 97.955 319.048 98.1933 318.182 98.67C317.315 99.1467 316.882 99.7533 316.882 100.49C316.882 101.183 317.315 101.877 318.182 102.57C319.048 103.22 320.348 103.978 322.082 104.845C323.858 105.712 325.808 106.687 327.932 107.77C330.055 108.81 332.157 109.958 334.237 111.215C336.317 112.472 338.137 113.793 339.697 115.18C341.257 116.567 342.297 118.04 342.817 119.6C343.207 120.683 343.402 121.702 343.402 122.655C343.402 125.168 342.123 127.162 339.567 128.635C337.01 130.065 333.218 130.78 328.192 130.78C324.248 130.78 320.587 129.697 317.207 127.53C313.827 125.363 311.032 122.568 308.822 119.145L309.342 118.495C312.028 120.575 314.888 122.222 317.922 123.435C320.955 124.605 323.923 125.19 326.827 125.19C328.777 125.19 330.293 124.93 331.377 124.41C332.503 123.89 333.067 123.24 333.067 122.46C333.067 122.287 333.023 122.07 332.937 121.81C332.503 120.597 331.463 119.427 329.817 118.3C328.17 117.13 326.22 115.917 323.967 114.66C321.757 113.36 319.482 111.93 317.142 110.37C314.845 108.767 312.787 106.947 310.967 104.91C309.97 103.697 309.472 102.462 309.472 101.205C309.472 99.8183 309.97 98.4967 310.967 97.24C311.963 95.9833 313.372 94.965 315.192 94.185C317.012 93.3617 319.135 92.95 321.562 92.95C324.508 92.95 327.303 93.1883 329.947 93.665C332.59 94.1417 334.952 94.77 337.032 95.55C339.155 96.2867 340.823 97.11 342.037 98.02L337.617 106.015Z" fill="url(#paint1_linear_60_3)"/>
<defs>
<filter id="filter0_d_60_3" x="12.2351" y="13.1318" width="126.675" height="126.792" filterUnits="userSpaceOnUse" color-interpolation-filters="sRGB">
<feFlood flood-opacity="0" result="BackgroundImageFix"/>
<feColorMatrix in="SourceAlpha" type="matrix" values="0 0 0 0 0 0 0 0 0 0 0 0 0 0 0 0 0 0 127 0" result="hardAlpha"/>
<feOffset dx="1" dy="4"/>
<feGaussianBlur stdDeviation="2"/>
<feComposite in2="hardAlpha" operator="out"/>
<feColorMatrix type="matrix" values="0 0 0 0 0 0 0 0 0 0 0 0 0 0 0 0 0 0 1 0"/>
<feBlend mode="normal" in2="BackgroundImageFix" result="effect1_dropShadow_60_3"/>
<feBlend mode="normal" in="SourceGraphic" in2="effect1_dropShadow_60_3" result="shape"/>
</filter>
<linearGradient id="paint0_linear_60_3" x1="2.67713e-06" y1="25" x2="107.5" y2="116" gradientUnits="userSpaceOnUse">
<stop stop-color="#0D2DD5"/>
<stop offset="1" stop-color="#BA042F" stop-opacity="0.63"/>
</linearGradient>
<linearGradient id="paint1_linear_60_3" x1="147.514" y1="71.5566" x2="338.201" y2="139.242" gradientUnits="userSpaceOnUse">
<stop stop-color="#061599"/>
<stop offset="1" stop-color="#BF0202"/>
</linearGradient>
</defs>
</svg>
