<svg width="100" height="130" viewBox="0 0 157 230" fill="none" xmlns="http://www.w3.org/2000/svg">
<path d="M152 74C152 92.5714 146.11 109.781 133.956 131.985C125.053 148.251 112.998 166.843 97.7491 190.362C92.0435 199.162 85.8906 208.652 79.2882 218.968C78.8887 219.592 77.9709 219.593 77.5689 218.982C73.9766 213.528 70.5218 208.299 67.2033 203.276C47.7682 173.861 33.0098 151.524 22.6939 132.37C10.6858 110.073 5 92.6123 5 74C5 36.1663 37.6249 5 78.5 5C119.375 5 152 36.1663 152 74Z" stroke="#F7F7F7" stroke-width="10"/>
<circle cx="78.5" cy="83.5" r="42.5" stroke="#F7F7F7" stroke-width="10"/>
</svg>
