<svg width="125" height="125" viewBox="0 0 125 125" fill="none" xmlns="http://www.w3.org/2000/svg">
<g filter="url(#filter0_d_54_18)">
<path d="M44 71.6318L62.2975 71.6318C70.6727 71.6318 78.1609 66.4135 81.0606 58.5563L81.7987 56.5562C86.618 43.4974 76.9554 29.6318 63.0356 29.6318L50.2351 29.6318C45.2645 29.6318 41.2351 33.6612 41.2351 38.6318L41.2349 94.632C41.2349 103.745 33.8476 111.132 24.735 111.132V111.132C15.6223 111.132 8.23506 103.745 8.23508 94.6319L8.23523 22.856C8.23525 13.0672 16.1707 5.1318 25.9595 5.13179L60.5612 5.13177C85.8723 5.13176 107.873 22.5089 113.735 47.1317V47.1317V47.1317C120.716 80.2238 95.6484 111.419 61.8295 111.726L52 111.816L55.5 107" stroke="url(#paint0_linear_54_18)" stroke-width="10" style="mix-blend-mode:darken" shape-rendering="crispEdges"/>
</g>
<defs>
<filter id="filter0_d_54_18" x="0.235107" y="0.131775" width="124.674" height="124.774" filterUnits="userSpaceOnUse" color-interpolation-filters="sRGB">
<feFlood flood-opacity="0" result="BackgroundImageFix"/>
<feColorMatrix in="SourceAlpha" type="matrix" values="0 0 0 0 0 0 0 0 0 0 0 0 0 0 0 0 0 0 127 0" result="hardAlpha"/>
<feOffset dx="1" dy="4"/>
<feGaussianBlur stdDeviation="2"/>
<feComposite in2="hardAlpha" operator="out"/>
<feColorMatrix type="matrix" values="0 0 0 0 0 0 0 0 0 0 0 0 0 0 0 0 0 0 1 0"/>
<feBlend mode="normal" in2="BackgroundImageFix" result="effect1_dropShadow_54_18"/>
<feBlend mode="normal" in="SourceGraphic" in2="effect1_dropShadow_54_18" result="shape"/>
</filter>
<linearGradient id="paint0_linear_54_18" x1="11" y1="10" x2="91" y2="122" gradientUnits="userSpaceOnUse">
<stop stop-color="#F3A307"/>
<stop offset="1" stop-color="#C00707"/>
</linearGradient>
</defs>
</svg>
